<svg width="177" height="32" viewBox="0 0 177 32" fill="none" xmlns="http://www.w3.org/2000/svg">
<path d="M5.79305 26.034C4.47538 25.2732 3.32044 24.2603 2.3942 23.0532C1.46796 21.8461 0.788539 20.4684 0.39474 18.9987C0.000940817 17.5291 -0.0995274 15.9962 0.0990713 14.4877C0.29767 12.9792 0.791446 11.5246 1.55221 10.2069C2.31297 8.88922 3.32582 7.73429 4.53292 6.80805C5.74003 5.88181 7.11775 5.20239 8.58743 4.80859C10.0571 4.41479 11.59 4.31432 13.0985 4.51292C14.607 4.71152 16.0616 5.2053 17.3793 5.96606L11.5862 16L5.79305 26.034Z" fill="#D32D2F"/>
<path d="M24.2759 2.06968C26.0328 3.08402 27.5727 4.43449 28.8077 6.04396C30.0427 7.65343 30.9486 9.4904 31.4737 11.45C31.9987 13.4095 32.1327 15.4533 31.8679 17.4647C31.6031 19.476 30.9447 21.4155 29.9304 23.1724C28.916 24.9293 27.5656 26.4692 25.9561 27.7042C24.3466 28.9392 22.5097 29.8451 20.5501 30.3702C18.5905 30.8952 16.5467 31.0292 14.5354 30.7644C12.524 30.4996 10.5846 29.8412 8.82765 28.8269L16.5518 15.4483L24.2759 2.06968Z" fill="#181818"/>
<path d="M45.46 8.7H51.06C52.9533 8.7 54.3933 9.08 55.38 9.84C56.38 10.6 56.88 11.7333 56.88 13.24V13.32C56.88 15.16 56.02 16.4133 54.3 17.08L57.72 23H53.4L50.5 17.88H49.54V23H45.46V8.7ZM50.86 15.22C52.2333 15.22 52.92 14.64 52.92 13.48V13.4C52.92 12.8267 52.7533 12.4133 52.42 12.16C52.0866 11.9067 51.5733 11.78 50.88 11.78H49.54V15.22H50.86Z" fill="#0B0B0B"/>
<path d="M66.3086 23.24C64.2552 23.24 62.6819 22.7333 61.5886 21.72C60.5086 20.6933 59.9686 19.1867 59.9686 17.2V8.7H64.0686V17.02C64.0686 18.0733 64.2286 18.84 64.5486 19.32C64.8819 19.7867 65.4686 20.02 66.3086 20.02C67.1486 20.02 67.7286 19.7867 68.0486 19.32C68.3819 18.8533 68.5486 18.0667 68.5486 16.96V8.7H72.6886V17.14C72.6886 19.1933 72.1219 20.7267 70.9886 21.74C69.8952 22.74 68.3352 23.24 66.3086 23.24Z" fill="#0B0B0B"/>
<path d="M81.3778 19.84C82.5911 19.84 83.4778 19.52 84.0378 18.88C84.6111 18.24 84.8978 17.2467 84.8978 15.9V15.74C84.8978 14.3667 84.6178 13.38 84.0578 12.78C83.4978 12.1667 82.5911 11.86 81.3378 11.86H80.4378V19.84H81.3778ZM76.3178 8.7H81.5178C84.0244 8.7 85.9244 9.30667 87.2178 10.52C88.5244 11.72 89.1778 13.44 89.1778 15.68V15.84C89.1778 18.1067 88.5311 19.8533 87.2378 21.08C85.9178 22.36 84.0044 23 81.4978 23H76.3178V8.7Z" fill="#0B0B0B"/>
<path d="M92.1373 8.7H102.017V11.86H96.2173V14.32H100.837V17.24H96.2173V19.84H102.337V23H92.1373V8.7Z" fill="#0B0B0B"/>
<path d="M110.677 23.24C106.717 23.24 104.664 21.6467 104.517 18.46H108.417C108.484 19.06 108.664 19.4933 108.957 19.76C109.304 20.1333 109.877 20.32 110.677 20.32C111.264 20.32 111.717 20.1933 112.037 19.94C112.357 19.6867 112.517 19.34 112.517 18.9C112.517 18.4867 112.357 18.1733 112.037 17.96C111.771 17.8133 111.177 17.6667 110.257 17.52C108.231 17.28 106.831 16.82 106.057 16.14C105.257 15.4733 104.857 14.4133 104.857 12.96C104.857 11.6533 105.351 10.5867 106.337 9.76C107.351 8.92 108.704 8.5 110.397 8.5C113.904 8.5 115.784 9.98667 116.037 12.96H112.237C112.091 11.9333 111.477 11.42 110.397 11.42C109.851 11.42 109.437 11.5333 109.157 11.76C108.877 11.9733 108.737 12.2667 108.737 12.64C108.737 13.04 108.891 13.34 109.197 13.54C109.517 13.78 110.104 13.9467 110.957 14.04C112.877 14.2667 114.244 14.6667 115.057 15.24C115.977 15.96 116.437 17.04 116.437 18.48C116.437 19.84 115.937 20.96 114.937 21.84C113.871 22.7733 112.451 23.24 110.677 23.24Z" fill="#0B0B0B"/>
<path d="M119.343 8.7H123.463V14.36L127.763 8.7H132.043L126.803 15.34L132.323 23H127.583L123.463 17.02V23H119.343V8.7Z" fill="#0B0B0B"/>
<path d="M137.473 11.86H133.773V8.7H145.293V11.86H141.593V23H137.473V11.86Z" fill="#0B0B0B"/>
<path d="M151.944 18.94C152.544 19.66 153.351 20.02 154.364 20.02C155.378 20.02 156.178 19.6533 156.764 18.92C157.351 18.1867 157.644 17.18 157.644 15.9V15.74C157.644 14.4733 157.344 13.4867 156.744 12.78C156.158 12.06 155.358 11.7 154.344 11.7C153.318 11.7 152.511 12.0533 151.924 12.76C151.351 13.4667 151.064 14.4667 151.064 15.76V15.92C151.064 17.2133 151.358 18.22 151.944 18.94ZM154.284 23.24C152.018 23.24 150.191 22.56 148.804 21.2C147.458 19.88 146.784 18.1267 146.784 15.94V15.78C146.784 13.6333 147.511 11.8733 148.964 10.5C150.378 9.16667 152.171 8.5 154.344 8.5C156.544 8.5 158.358 9.14 159.784 10.42C161.211 11.7667 161.924 13.52 161.924 15.68V15.84C161.924 18.08 161.231 19.86 159.844 21.18C158.431 22.5533 156.578 23.24 154.284 23.24Z" fill="#0B0B0B"/>
<path d="M164.887 8.7H170.327C172.261 8.7 173.701 9.11333 174.647 9.94C175.594 10.7533 176.067 11.9333 176.067 13.48V13.56C176.067 15.0667 175.587 16.2133 174.627 17C173.681 17.7867 172.307 18.18 170.507 18.18H168.967V23H164.887V8.7ZM170.147 15.38C171.494 15.38 172.167 14.78 172.167 13.58V13.5C172.167 12.3533 171.501 11.78 170.167 11.78H168.967V15.38H170.147Z" fill="#0B0B0B"/>
</svg>
