<?xml version="1.0" encoding="UTF-8"?> <svg xmlns="http://www.w3.org/2000/svg" width="105" height="130" viewBox="0 0 105 130" fill="none"> <path d="M0 0H105V123C105 126.866 101.866 130 98 130H7C3.13401 130 0 126.866 0 123V0Z" fill="white"></path> <path fill-rule="evenodd" clip-rule="evenodd" d="M74.6928 48.7462V81.2937C74.6928 83.2212 72.3655 83.2213 71.3336 82.1981C65.1625 76.016 49.5006 60.3314 43.3129 54.1427C43.1129 53.9492 42.9756 53.6998 42.9192 53.4271C42.8627 53.1544 42.8896 52.8709 42.9963 52.6137C43.103 52.3565 43.2847 52.1375 43.5176 51.9851C43.7505 51.8328 44.0238 51.7542 44.3019 51.7596H67.4173C68.0029 51.7546 68.5653 51.5296 68.9931 51.1292C69.7876 50.3272 70.971 49.1488 72.3358 47.7758C72.5296 47.5831 72.7756 47.4516 73.0433 47.3977C73.3111 47.3437 73.5887 47.3697 73.8419 47.4723C74.095 47.575 74.3124 47.7498 74.4672 47.9751C74.622 48.2003 74.7073 48.4662 74.7126 48.7396" fill="#499DE7"></path> <path fill-rule="evenodd" clip-rule="evenodd" d="M33.542 48.0464C40.079 54.5915 59.1595 73.7022 65.9768 80.5279C66.1765 80.7182 66.3144 80.9643 66.3726 81.2342C66.4308 81.504 66.4066 81.7852 66.3031 82.0411C66.1997 82.297 66.0218 82.5158 65.7925 82.6692C65.5632 82.8226 65.2932 82.9033 65.0175 82.901H58.2496C57.9409 82.9073 57.6343 82.8479 57.3501 82.7267C57.066 82.6055 56.8108 82.4253 56.6014 82.198L48.449 74.0521C48.0101 73.6178 47.4177 73.3746 46.8007 73.3754H40.6461C40.0563 73.3723 39.49 73.1432 39.0637 72.7351C37.5638 71.2366 33.3343 67.0019 31.8113 65.4737C31.5964 65.2643 31.4256 65.0138 31.3089 64.7372C31.1923 64.4605 31.1322 64.1633 31.1322 63.863V48.9904C31.1336 48.7124 31.2182 48.4412 31.3751 48.2118C31.5321 47.9825 31.7541 47.8055 32.0126 47.7039C32.271 47.6022 32.554 47.5805 32.8248 47.6416C33.0957 47.7027 33.3421 47.8437 33.5321 48.0464" fill="#499DE7"></path> <path fill-rule="evenodd" clip-rule="evenodd" d="M51.2444 80.5444C49.7676 79.0657 48.2116 77.5078 47.3809 76.6694C46.9432 76.2331 46.3503 75.9885 45.7326 75.9895H40.4581C39.866 75.9954 39.2995 76.2322 38.8791 76.6496L34.9957 80.5345C34.8 80.7312 34.6676 80.982 34.6157 81.2547C34.5637 81.5275 34.5945 81.8095 34.7041 82.0645C34.8137 82.3195 34.9971 82.5358 35.2307 82.6855C35.4642 82.8352 35.7372 82.9114 36.0144 82.9043H50.2654C50.5394 82.9066 50.8079 82.8272 51.0368 82.6762C51.2656 82.5252 51.4444 82.3095 51.5504 82.0565C51.6565 81.8035 51.6849 81.5246 51.6322 81.2553C51.5795 80.986 51.4479 80.7386 51.2543 80.5444" fill="#499DE7"></path> <path fill-rule="evenodd" clip-rule="evenodd" d="M74.6236 20.3244L71.182 23.7769C72.2209 24.6317 73.0697 25.6948 73.6736 26.8977C74.2776 28.1007 74.6234 29.4169 74.6888 30.7617C74.7542 32.1065 74.5377 33.4501 74.0533 34.7061C73.5689 35.9621 72.8273 37.1027 71.8762 38.0545C70.9252 39.0063 69.7856 39.7482 68.5309 40.2326C67.2762 40.717 65.9342 40.933 64.5911 40.8669C63.248 40.8008 61.9336 40.4539 60.7324 39.8486C59.5312 39.2434 58.4699 38.393 57.6167 37.3524L52.9125 42.0624L48.2116 37.3524C47.3563 38.3873 46.2945 39.232 45.0943 39.8323C43.8941 40.4327 42.5819 40.7755 41.2417 40.8387C39.9016 40.902 38.563 40.6844 37.3117 40.1998C36.0604 39.7151 34.924 38.9743 33.9752 38.0245C33.0264 37.0748 32.2861 35.9371 31.8018 34.6844C31.3175 33.4316 31.0998 32.0915 31.1627 30.7496C31.2255 29.4078 31.5676 28.0939 32.1669 26.8921C32.7662 25.6902 33.6096 24.627 34.643 23.7703L31.1552 20.2782C30.9588 20.1021 30.7161 19.9858 30.4559 19.943C30.1956 19.9002 29.9286 19.9327 29.6862 20.0367C29.4437 20.1408 29.236 20.3119 29.0875 20.5301C28.9389 20.7483 28.8557 21.0045 28.8477 21.2684C28.8477 27.3416 28.8477 37.5339 28.8477 38.7618C28.8734 39.3416 29.1075 39.8925 29.507 40.3131L37.6692 48.4821C37.8868 48.6957 38.1445 48.8639 38.4274 48.9772C38.7103 49.0905 39.0128 49.1466 39.3175 49.1422H66.3492C66.9583 49.1388 67.5413 48.8944 67.9711 48.4623C68.4294 48.0101 75.9587 40.4616 76.3806 40.0358C76.7725 39.6071 76.9931 39.0491 77.0004 38.468V21.3047C76.9977 21.029 76.9135 20.7603 76.7584 20.5324C76.6034 20.3046 76.3844 20.1278 76.1291 20.0243C75.8739 19.9209 75.5937 19.8955 75.324 19.9512C75.0543 20.007 74.8072 20.1414 74.6137 20.3377" fill="#499DE7"></path> <path fill-rule="evenodd" clip-rule="evenodd" d="M27.918 10H31.2509C31.5638 10.0048 31.8727 10.0717 32.1596 10.1969C32.4465 10.3221 32.7057 10.5031 32.9222 10.7295L51.9466 29.8038C52.2102 30.056 52.5618 30.1951 52.9264 30.1914C53.291 30.1877 53.6397 30.0415 53.8982 29.784C57.8804 25.7869 72.5468 11.1057 72.972 10.6833C73.4031 10.2527 73.9851 10.0075 74.5939 10H77.8905C78.1672 9.996 78.4388 10.0751 78.6702 10.2271C78.9016 10.3792 79.0822 10.5972 79.1887 10.853C79.2951 11.1088 79.3226 11.3906 79.2674 11.6622C79.2123 11.9338 79.0772 12.1826 78.8795 12.3765C71.8314 19.4464 52.9125 38.3854 52.9125 38.3854L26.962 12.3897C26.7618 12.1985 26.6233 11.9516 26.5645 11.6809C26.5057 11.4102 26.5292 11.128 26.6321 10.8708C26.735 10.6136 26.9125 10.3932 27.1417 10.238C27.3709 10.0828 27.6413 9.99989 27.918 10Z" fill="#499DE7"></path> <path d="M71.6369 31.2462C71.637 32.6225 71.2028 33.9636 70.3962 35.078C69.5895 36.1923 68.4518 37.023 67.1455 37.4513C65.8392 37.8796 64.4311 37.8836 63.1224 37.4627C61.8137 37.0419 60.6713 36.2177 59.8583 35.1079C60.3594 34.6029 68.4492 26.5263 68.9799 25.9784C69.8064 26.5874 70.4778 27.383 70.9394 28.3006C71.4011 29.2182 71.6401 30.2319 71.6369 31.2594" fill="#499DE7"></path> <path d="M45.9568 35.1013C45.4006 35.8603 44.6872 36.49 43.8653 36.9472C43.0435 37.4045 42.1327 37.6784 41.1952 37.7504C40.2578 37.8223 39.3159 37.6905 38.434 37.364C37.5522 37.0375 36.7513 36.5241 36.0861 35.8588C35.4209 35.1935 34.9072 34.3922 34.5802 33.5096C34.2531 32.627 34.1205 31.6841 34.1913 30.7454C34.2622 29.8067 34.5348 28.8945 34.9906 28.0711C35.4463 27.2478 36.0745 26.5328 36.8319 25.9751C37.8868 27.028 45.0469 34.197 45.9568 35.1013Z" fill="#499DE7"></path> <path d="M42.0965 15.0203H63.7516C63.8504 15.0186 63.9475 15.0465 64.0305 15.1003C64.1134 15.1541 64.1785 15.2315 64.2174 15.3225C64.2563 15.4135 64.2672 15.514 64.2489 15.6112C64.2305 15.7085 64.1836 15.798 64.1142 15.8685L53.8949 26.0807C53.6306 26.3395 53.2756 26.4845 52.9059 26.4845C52.5362 26.4845 52.1812 26.3395 51.917 26.0807L41.6976 15.8487C41.6334 15.7752 41.592 15.6845 41.5785 15.5878C41.5651 15.4911 41.5801 15.3925 41.6217 15.3042C41.6634 15.2159 41.7299 15.1417 41.813 15.0906C41.8962 15.0396 41.9924 15.014 42.0899 15.017" fill="#F15857"></path> <path d="M26.4577 93.2947C24.8841 93.1561 23.4776 93.0868 22.2381 93.0868C20.7371 93.0868 19.9865 93.5929 19.9865 94.6051C19.9813 94.7959 20.0176 94.9857 20.0927 95.1612C20.1678 95.3367 20.2801 95.4938 20.4217 95.6217C20.7287 95.9012 21.0672 96.1437 21.4304 96.3445L24.3215 97.9585C25.1968 98.4057 25.9624 99.0415 26.5632 99.8201C27.0612 100.561 27.3127 101.44 27.2818 102.332C27.2931 103.167 27.0642 103.987 26.6225 104.695C26.1667 105.407 25.5007 105.958 24.7171 106.273C23.7372 106.662 22.6885 106.847 21.6348 106.817C20.7285 106.823 19.8229 106.764 18.9251 106.639C18.1075 106.52 17.6526 106.411 17.5636 106.309C17.4803 106.228 17.4318 106.118 17.4284 106.002V104.451C17.4277 104.397 17.4378 104.344 17.4582 104.295C17.4786 104.246 17.5089 104.201 17.5471 104.164C17.5895 104.126 17.6393 104.098 17.6933 104.082C17.7474 104.065 17.8043 104.061 17.8603 104.068H17.9031C18.3086 104.117 18.9349 104.164 19.7888 104.213C20.6426 104.263 21.2788 104.286 21.7041 104.286C22.5612 104.286 23.1897 104.139 23.5897 103.847C23.9853 103.553 24.1864 103.051 24.1864 102.348C24.1945 102.145 24.1604 101.942 24.086 101.752C24.0117 101.562 23.8988 101.39 23.7545 101.246C23.4556 100.957 23.1237 100.704 22.7655 100.493L19.5316 98.5526C18.7741 98.1399 18.1177 97.5638 17.6097 96.866C17.1827 96.1916 16.9711 95.4029 17.0032 94.6051C17.0032 91.892 18.7899 90.5354 22.3634 90.5354C23.236 90.5415 24.1075 90.5955 24.9742 90.6971C25.544 90.7263 26.1083 90.8227 26.6555 90.9843C26.7162 91.0163 26.7676 91.0635 26.8046 91.1214C26.8416 91.1792 26.8629 91.2457 26.8665 91.3143V92.8987C26.8665 93.1561 26.7445 93.2848 26.4972 93.2848L26.4577 93.2947Z" fill="#363636"></path> <path d="M39.3241 106.071C39.3335 106.137 39.3263 106.203 39.3033 106.265C39.2803 106.327 39.2421 106.382 39.1923 106.425C38.7542 106.554 38.3031 106.635 37.8473 106.666C36.8426 106.778 35.8319 106.828 34.8211 106.817C33.0079 106.817 31.7289 106.455 30.9839 105.731C30.2388 105.008 29.8641 103.903 29.8597 102.418V94.9252C29.8597 93.4377 30.2312 92.3309 30.974 91.6048C31.7168 90.8787 32.9992 90.5222 34.8211 90.5354C35.7877 90.5339 36.7538 90.5824 37.7154 90.6806C38.6418 90.7796 39.1395 90.8688 39.2121 90.9447C39.2527 90.9921 39.2836 91.0472 39.3028 91.1067C39.3221 91.1662 39.3293 91.2289 39.3241 91.2912V92.6643C39.3241 92.7209 39.313 92.777 39.2912 92.8293C39.2695 92.8815 39.2376 92.929 39.1975 92.9689C39.1573 93.0088 39.1097 93.0403 39.0573 93.0617C39.0049 93.083 38.9489 93.0938 38.8923 93.0934H34.5178C33.8585 93.0934 33.4233 93.2287 33.1827 93.5027C32.942 93.7766 32.8266 94.2453 32.8266 94.9318V97.2423H38.6319C38.7455 97.2423 38.8545 97.2875 38.9349 97.3679C39.0153 97.4484 39.0604 97.5575 39.0604 97.6713V99.2127C39.0604 99.3265 39.0153 99.4357 38.9349 99.5161C38.8545 99.5966 38.7455 99.6418 38.6319 99.6418H32.8266V102.418C32.8266 103.104 32.9453 103.583 33.186 103.853C33.4266 104.124 33.8716 104.263 34.5211 104.263H38.8923C38.9489 104.262 39.0049 104.273 39.0573 104.294C39.1097 104.316 39.1573 104.347 39.1975 104.387C39.2376 104.427 39.2695 104.475 39.2912 104.527C39.313 104.579 39.3241 104.635 39.3241 104.692V106.071Z" fill="#363636"></path> <path d="M52.4939 92.8029C52.4939 93.0604 52.3488 93.1891 52.0653 93.1891H48.3204V106.22C48.322 106.277 48.3117 106.333 48.2901 106.385C48.2686 106.437 48.2362 106.485 48.1952 106.524C48.1558 106.564 48.1086 106.596 48.0564 106.618C48.0043 106.639 47.9483 106.65 47.8919 106.649H45.7623C45.7059 106.65 45.6499 106.639 45.5978 106.618C45.5456 106.596 45.4984 106.564 45.459 106.524C45.418 106.485 45.3856 106.437 45.3641 106.385C45.3425 106.333 45.3321 106.277 45.3338 106.22V93.1759H41.5724C41.2889 93.1759 41.1438 93.0472 41.1438 92.7897V91.0932C41.1431 91.0387 41.1538 90.9846 41.1754 90.9345C41.197 90.8845 41.2289 90.8395 41.2691 90.8027C41.3506 90.7247 41.4596 90.682 41.5724 90.6839H52.0653C52.1781 90.682 52.2871 90.7247 52.3686 90.8027C52.4088 90.8395 52.4407 90.8845 52.4623 90.9345C52.4839 90.9846 52.4947 91.0387 52.4939 91.0932V92.8029Z" fill="#363636"></path> <path d="M63.5901 106.072C63.5989 106.136 63.5919 106.202 63.5695 106.264C63.5471 106.326 63.51 106.381 63.4615 106.425C63.0222 106.554 62.5701 106.635 62.1132 106.666C61.1085 106.778 60.0979 106.829 59.087 106.817C57.2739 106.817 55.9959 106.455 55.2531 105.732C54.5103 105.008 54.1378 103.907 54.1356 102.431V94.9385C54.1356 93.451 54.5081 92.3442 55.2531 91.618C55.9981 90.8919 57.2761 90.531 59.087 90.5354C60.0547 90.5341 61.0219 90.5826 61.9846 90.6807C62.9077 90.7797 63.4055 90.8688 63.4813 90.9447C63.561 91.0418 63.6 91.166 63.5901 91.2913V92.6643C63.5903 92.7207 63.5794 92.7766 63.5579 92.8288C63.5364 92.8809 63.5047 92.9282 63.4648 92.968C63.4254 93.0084 63.3782 93.0404 63.3261 93.062C63.2739 93.0835 63.2179 93.0942 63.1615 93.0934H58.7837C58.1244 93.0934 57.6925 93.2288 57.4651 93.5027C57.2376 93.7767 57.1058 94.2519 57.1058 94.9385V97.2489H62.9143C62.9713 97.2473 63.028 97.2576 63.0808 97.2792C63.1336 97.3008 63.1813 97.3332 63.2209 97.3743C63.2612 97.4138 63.2932 97.4611 63.3147 97.5133C63.3362 97.5655 63.3469 97.6215 63.3461 97.678V99.2194C63.3461 99.276 63.3349 99.3321 63.3132 99.3844C63.2915 99.4366 63.2596 99.4841 63.2194 99.524C63.1793 99.5639 63.1317 99.5954 63.0793 99.6168C63.0269 99.6381 62.9708 99.6489 62.9143 99.6485H57.0893V102.418C57.0893 103.104 57.2079 103.583 57.4486 103.853C57.6892 104.124 58.1343 104.263 58.7672 104.263H63.1549C63.2113 104.262 63.2673 104.273 63.3195 104.294C63.3716 104.316 63.4188 104.348 63.4582 104.388C63.4981 104.428 63.5298 104.475 63.5513 104.527C63.5728 104.58 63.5837 104.635 63.5835 104.692L63.5901 106.072Z" fill="#363636"></path> <path d="M74.6566 99.9521L78.0158 106.223C78.0537 106.271 78.0725 106.331 78.0685 106.392C78.0734 106.427 78.0701 106.463 78.0588 106.497C78.0474 106.531 78.0284 106.562 78.0031 106.587C77.9779 106.612 77.9471 106.631 77.9133 106.643C77.8795 106.654 77.8434 106.657 77.8081 106.652H75.1906C75.1491 106.656 75.1074 106.649 75.069 106.633C75.0305 106.617 74.9965 106.592 74.9698 106.56C74.9203 106.497 74.7357 106.174 74.4159 105.593L71.6732 100.49H71.3963C71.004 100.49 70.3678 100.46 69.481 100.404V106.223C69.4831 106.336 69.4417 106.444 69.3656 106.527C69.3286 106.568 69.2832 106.6 69.2326 106.622C69.182 106.643 69.1273 106.654 69.0722 106.652H66.9361C66.8796 106.653 66.8237 106.642 66.7715 106.621C66.7194 106.599 66.6722 106.567 66.6328 106.527C66.5917 106.488 66.5594 106.441 66.5378 106.389C66.5162 106.336 66.5059 106.28 66.5075 106.223V91.4497C66.5007 91.3511 66.5197 91.2524 66.5624 91.1633C66.6052 91.0742 66.6703 90.9977 66.7514 90.9414C66.9163 90.8336 67.4888 90.7379 68.469 90.6542C69.4579 90.5717 70.4238 90.5288 71.3963 90.5288C73.3742 90.5288 74.8972 90.9392 75.9653 91.7599C77.0334 92.5807 77.5652 93.7909 77.5608 95.3906V95.5788C77.5499 97.7176 76.5818 99.1754 74.6566 99.9521ZM74.5939 95.5689V95.3807C74.6192 95.0464 74.5592 94.7111 74.4197 94.4063C74.2802 94.1015 74.0656 93.8371 73.7962 93.638C73.2654 93.2683 72.4611 93.0868 71.3798 93.0868C70.6941 93.0868 70.0612 93.1132 69.4645 93.1693V98.0014C70.2667 98.0432 70.9051 98.0641 71.3798 98.0641C72.56 98.0641 73.3907 97.8727 73.872 97.4898C74.3533 97.107 74.5939 96.4666 74.5939 95.5689Z" fill="#363636"></path> <path d="M88.9999 106.071C89.0083 106.137 89.0008 106.203 88.9778 106.264C88.9548 106.326 88.9171 106.381 88.868 106.425C88.4298 106.554 87.9788 106.635 87.523 106.666C86.5183 106.778 85.5077 106.828 84.4968 106.817C82.6837 106.817 81.4013 106.454 80.6596 105.732C79.9179 105.009 79.5453 103.906 79.5453 102.431V94.9385C79.5453 93.451 79.9168 92.3442 80.6596 91.618C81.4013 90.8985 82.6837 90.5354 84.4968 90.5354C85.4634 90.534 86.4295 90.5825 87.3911 90.6807C88.3175 90.7797 88.8153 90.8688 88.8878 90.9447C88.9687 91.0413 89.0089 91.1656 88.9999 91.2913V92.6643C88.999 92.7784 88.9531 92.8876 88.8722 92.9679C88.7913 93.0483 88.682 93.0934 88.568 93.0934H84.1935C83.5342 93.0934 83.099 93.2287 82.8749 93.5027C82.6507 93.7767 82.5122 94.2519 82.5122 94.9385V97.2489H88.3076C88.3641 97.2473 88.4203 97.2576 88.4726 97.2793C88.5248 97.3009 88.572 97.3333 88.6109 97.3743C88.6512 97.4138 88.6832 97.4611 88.7047 97.5133C88.7263 97.5655 88.7369 97.6215 88.7361 97.678V99.2194C88.7364 99.2758 88.7254 99.3317 88.7039 99.3838C88.6824 99.4359 88.6508 99.4833 88.6109 99.5231C88.5715 99.5635 88.5243 99.5955 88.4721 99.617C88.42 99.6386 88.364 99.6493 88.3076 99.6485H82.4958V102.418C82.4958 103.104 82.6177 103.583 82.8584 103.853C83.099 104.124 83.5441 104.263 84.177 104.263H88.5515C88.6655 104.263 88.7748 104.308 88.8557 104.388C88.9366 104.469 88.9825 104.578 88.9834 104.692L88.9999 106.071Z" fill="#363636"></path> <path d="M22.7787 118.561C22.7817 118.602 22.7742 118.644 22.7569 118.681C22.7396 118.719 22.7131 118.751 22.6798 118.776C22.4285 118.86 22.1667 118.909 21.9018 118.921C21.3543 118.978 20.804 119.005 20.2536 119C19.8745 119.006 19.4983 118.933 19.1489 118.785C18.7994 118.638 18.4841 118.42 18.2229 118.145C17.6625 117.577 17.379 116.766 17.379 115.709V114.165C17.379 113.095 17.6526 112.277 18.1998 111.709C18.4688 111.429 18.7935 111.208 19.153 111.062C19.5124 110.915 19.8986 110.845 20.2865 110.857C20.8264 110.854 21.3659 110.885 21.9018 110.95C22.177 110.972 22.4496 111.02 22.7161 111.092C22.7434 111.114 22.7648 111.142 22.7781 111.174C22.7913 111.207 22.7961 111.242 22.7919 111.277V111.99C22.7919 112.141 22.7227 112.214 22.5776 112.214H22.548C21.8887 112.161 21.1337 112.131 20.2865 112.131C20.0828 112.122 19.8801 112.165 19.6973 112.256C19.5146 112.346 19.3578 112.482 19.2415 112.65C18.9617 113.103 18.8303 113.633 18.8657 114.165V115.709C18.8318 116.236 18.9669 116.76 19.2514 117.205C19.3606 117.366 19.508 117.499 19.6805 117.59C19.8531 117.681 20.0454 117.727 20.2404 117.726C20.6195 117.726 20.9689 117.726 21.2986 117.693V114.96C21.2976 114.904 21.3189 114.849 21.3579 114.808C21.3762 114.788 21.3986 114.772 21.4237 114.761C21.4487 114.75 21.4757 114.745 21.503 114.746H22.5644C22.5927 114.745 22.6209 114.75 22.6471 114.76C22.6732 114.771 22.6968 114.788 22.7161 114.808C22.7364 114.828 22.7525 114.851 22.7633 114.878C22.7741 114.904 22.7793 114.932 22.7787 114.96V118.561Z" fill="#363636"></path> <path d="M37.9264 115.653L39.6076 118.786C39.6245 118.81 39.6327 118.839 39.6307 118.868C39.6334 118.886 39.632 118.904 39.6265 118.921C39.6211 118.938 39.6117 118.953 39.5993 118.966C39.5868 118.979 39.5716 118.989 39.5547 118.995C39.5379 119 39.5199 119.002 39.5022 119H38.1835C38.1625 119.002 38.1414 118.999 38.1219 118.991C38.1024 118.983 38.0851 118.97 38.0715 118.954C38.0473 118.921 37.955 118.759 37.7945 118.469L36.4232 115.917H36.288C36.0924 115.917 35.7727 115.904 35.3287 115.878V118.786C35.3292 118.841 35.3093 118.895 35.2727 118.937C35.254 118.958 35.231 118.974 35.2054 118.985C35.1798 118.996 35.1521 119.001 35.1243 119H34.0563C34.028 119.001 34 118.995 33.9739 118.985C33.9478 118.974 33.9242 118.958 33.9046 118.937C33.8647 118.897 33.8423 118.842 33.842 118.786V111.402C33.8388 111.353 33.8483 111.303 33.8697 111.259C33.891 111.214 33.9235 111.176 33.964 111.148C34.2413 111.054 34.5317 111.005 34.8244 111.003C35.3155 110.96 35.8133 110.94 36.288 110.94C37.277 110.94 38.0418 111.145 38.5725 111.554C38.8405 111.77 39.0528 112.047 39.1916 112.363C39.3304 112.678 39.3917 113.022 39.3703 113.366V113.458C39.4039 113.932 39.2807 114.404 39.0197 114.801C38.7587 115.197 38.3745 115.497 37.9264 115.653ZM37.8934 113.458V113.366C37.9064 113.199 37.877 113.032 37.8078 112.879C37.7386 112.727 37.632 112.594 37.4979 112.495C37.1308 112.284 36.7098 112.188 36.288 112.217C35.9584 112.217 35.6287 112.217 35.3287 112.26V114.676C35.7309 114.696 36.0507 114.709 36.288 114.709C36.7237 114.748 37.1604 114.646 37.5341 114.419C37.6638 114.297 37.7638 114.147 37.8261 113.981C37.8884 113.814 37.9115 113.635 37.8934 113.458Z" fill="#363636"></path> <path d="M56.1003 115.653C56.1003 116.742 55.8333 117.571 55.2992 118.145C54.6768 118.696 53.8749 119 53.0444 119C52.2138 119 51.4119 118.696 50.7895 118.145C50.2555 117.571 49.9918 116.742 49.9918 115.653V114.204C49.9918 113.071 50.2665 112.229 50.8159 111.679C51.1124 111.399 51.4624 111.182 51.8447 111.041C52.2271 110.9 52.634 110.837 53.0411 110.857C53.4568 110.831 53.8734 110.894 54.2629 111.042C54.6524 111.19 55.0057 111.419 55.2992 111.716C55.8333 112.29 56.1003 113.119 56.1003 114.204V115.653ZM54.597 115.653V114.204C54.6393 113.659 54.5078 113.115 54.2212 112.65C54.0678 112.493 53.8847 112.368 53.6826 112.283C53.4805 112.198 53.2635 112.155 53.0444 112.155C52.8252 112.155 52.6082 112.198 52.4061 112.283C52.2041 112.368 52.021 112.493 51.8675 112.65C51.5797 113.112 51.4469 113.654 51.4884 114.198V115.647C51.4464 116.191 51.5792 116.734 51.8675 117.198C52.021 117.355 52.2041 117.479 52.4061 117.564C52.6082 117.649 52.8252 117.693 53.0444 117.693C53.2635 117.693 53.4805 117.649 53.6826 117.564C53.8847 117.479 54.0678 117.355 54.2212 117.198C54.5007 116.734 54.6275 116.193 54.5839 115.653H54.597Z" fill="#363636"></path> <path d="M72.3589 115.967C72.3589 117.987 71.3765 118.998 69.4118 119C67.447 119.002 66.4602 117.991 66.4514 115.967V111.145C66.4509 111.117 66.4563 111.09 66.4671 111.065C66.4779 111.04 66.4939 111.018 66.5141 110.999C66.5341 110.98 66.5578 110.964 66.5838 110.954C66.6099 110.944 66.6378 110.939 66.6657 110.94H67.7272C67.7552 110.939 67.783 110.944 67.8091 110.954C67.8352 110.964 67.8589 110.98 67.8789 110.999C67.899 111.018 67.9151 111.04 67.9259 111.065C67.9367 111.09 67.942 111.117 67.9415 111.145V115.967C67.9027 116.448 68.012 116.929 68.2547 117.346C68.4623 117.63 68.8447 117.769 69.4019 117.769C69.6055 117.789 69.8111 117.765 70.0045 117.699C70.198 117.632 70.3748 117.524 70.5227 117.383C70.7469 117.129 70.8523 116.653 70.8523 115.967V111.145C70.8518 111.117 70.8572 111.09 70.868 111.065C70.8788 111.04 70.8948 111.018 70.915 110.999C70.9557 110.96 71.0102 110.939 71.0666 110.94H72.1281C72.1561 110.939 72.1839 110.944 72.21 110.954C72.2361 110.964 72.2598 110.98 72.2798 110.999C72.2999 111.018 72.3159 111.04 72.3268 111.065C72.3376 111.09 72.3429 111.117 72.3424 111.145L72.3589 115.967Z" fill="#363636"></path> <path d="M89.0031 113.514C89.0197 114 88.8961 114.48 88.6471 114.897C88.3957 115.283 88.0287 115.579 87.5988 115.742C87.0636 115.947 86.4935 116.044 85.9209 116.03C85.7264 116.03 85.4066 116.013 84.9616 115.987V118.786C84.9621 118.841 84.9421 118.895 84.9055 118.937C84.8868 118.958 84.8639 118.974 84.8383 118.985C84.8127 118.996 84.785 119.001 84.7572 119H83.6891C83.6609 119 83.6329 118.995 83.6068 118.984C83.5808 118.974 83.5572 118.958 83.5375 118.937C83.4976 118.897 83.4751 118.842 83.4748 118.786V111.402C83.4713 111.352 83.481 111.303 83.5031 111.258C83.5251 111.213 83.5586 111.175 83.6001 111.148C83.8763 111.054 84.1656 111.005 84.4572 111.003C84.9484 110.96 85.4462 110.94 85.9209 110.94C86.9098 110.94 87.6845 111.148 88.212 111.567C88.4806 111.791 88.6924 112.076 88.8299 112.398C88.9675 112.72 89.0268 113.069 89.0031 113.419V113.514ZM87.5263 113.514V113.419C87.5422 113.242 87.5159 113.064 87.4494 112.899C87.3829 112.734 87.2782 112.588 87.1439 112.471C86.7798 112.241 86.3503 112.135 85.9209 112.171C85.5912 112.171 85.2616 112.188 84.9616 112.217V114.772C85.3638 114.792 85.6835 114.802 85.9209 114.802C86.3489 114.834 86.7758 114.726 87.1373 114.495C87.2744 114.373 87.381 114.221 87.4486 114.051C87.5161 113.881 87.5428 113.697 87.5263 113.514Z" fill="#363636"></path> </svg> 